<svg class="logo" width="501" height="190" viewBox="0 0 501 190" xmlns="http://www.w3.org/2000/svg">
    <path fill="#FF7A20"
          d="M133.5 37c2.8 2.8 4.1 6.1 4.1 9.9 0 4.1-1.4 7.4-4.1 10.2-2.8 2.8-6.1 4.1-9.9 4.1-4.1 0-7.4-1.4-10.2-4.1-2.8-2.8-4.1-6.1-4.1-10.2 0-3.9 1.4-7.2 4.1-10.2 2.8-2.8 6.1-4.1 10.2-4.1 3.8 0 7.2 1.4 9.9 4.4zm178.6 14.4c0 3.3 1.1 5.9 3.3 8.1 2.2 2.2 4.8 3.3 8.1 3.3 3.1 0 5.7-1.1 7.9-3.3 2.2-2.2 3.3-4.8 3.3-8.1 0-3.1-1.1-5.7-3.3-7.9-2.2-2.4-4.8-3.5-7.9-3.5-.6 0-1.1 0-1.7.1-10-14.7-27.4-28.3-55-35.1-38.1-9.4-91.2-3.6-140.7 24.3 3.6.6 6.7 2.3 9.4 5.3 2.2 2.2 3.7 4.7 4.5 7.5 46.7-28.2 93.6-37 131.3-28.4 22.9 5.2 33.4 12.7 44.1 22.8-1 1.3.5-.6-.2.7-9.2-9-22.4-17-40.6-21-37.2-8.3-90.2-.4-134 31.1 0 1.3-.1 2.5-.3 3.7C184 19.2 236.4 9.3 273.9 17.5c20.4 4.5 34.6 13.5 43.9 23.9-.9.5-1.8 1.1-2.5 1.9-2.1 2.4-3.2 5.1-3.2 8.1zM96.7 71.1c-14.3 0-23.8 1.2-33.4 4.4-3.5 1.2-4.8 2.7-4.8 4.8v75.1c0 1.7 2.1 4 3.8 4h18.2c1.7 0 2-2.3 2-4V92.3c3-.6 9.4-.9 13.7-.9 2.9 0 4.3-1.2 4.3-2.9V74c0-2.1-2-2.9-3.8-2.9zm37.8 5.3c0-1.7-1.3-3-3-3h-18c-1.7 0-3 1.3-3 3v80c0 1.7 1.3 3 3 3h18c1.7 0 3-1.3 3-3v-80zm366 2.7v79.8c0 21.7-11 30.1-35.9 30.1-12.9 0-23.5-2.3-28.9-4.1-2.1-.8-3.2-1.7-3.2-3.9v-10.1c0-1.5 1.9-1.5 3.6-1.5h.3c6.8 0 21 1.2 28.2 1.2 10.4 0 11.9-3 11.9-11.7v-1.7c-3 .6-9 1.4-12.4 1.4-25.4 0-37.6-15.1-37.6-38.7v-10.2c0-24.4 13.7-38.5 38.1-38.5 11.6 0 23.1 1.7 31.5 3.8 3.9.9 4.4 1.7 4.4 4.1zm-24 13.2c-3-.5-7.6-1.1-12.5-1.1-10.7 0-13.5 7.7-13.5 18.4v10.2c0 10.5 2.8 18.7 13.5 18.7 3.6 0 9.5-.4 12.5-.9V92.3zM45.4 75.4H24.5V59.2c0-1.5-.4-1.8-1.7-1.8h-.4L4 56.7C2.3 57 .5 57.4.5 59v76.7c0 19 10.2 24.1 26.6 24.1 6.3 0 13.3-.6 17.5-1.3 1.9-.3 2.9-1.3 2.9-2.9v-11.3c0-1.6-.6-1.9-2.5-1.9H34c-6.3 0-9.5-1.4-9.5-6.5V93.4h20.9c1.6 0 2.1-2.3 2.1-3.9V77.7c0-1.6-.5-2.3-2.1-2.3zm256.1 34.3v11.7c0 23.6-12.3 38.5-37.7 38.5-3 0-8.3-.5-12.3-1.1v26.1c0 1.7-.2 4.5-1.9 4.5h-18.2c-1.7 0-3.9-2.8-3.9-4.5V79.4c0-2.4.9-3.5 5-4.4 8.6-2.1 20-3.9 31.6-3.9 24.4 0 37.4 14.2 37.4 38.6zm-24 0c0-10.7-2.8-18.4-13.5-18.4-5 0-9.5.3-12.5.8v47c4 .5 8.9.9 12.5.9 10.7 0 13.5-8 13.5-18.5v-11.8zm58-33.3c0-1.7-1.3-3-3-3h-18c-1.7 0-3 1.3-3 3v80c0 1.7 1.3 3 3 3h18c1.7 0 3-1.3 3-3v-80zm-116 33.3v11.7c0 23.6-12.3 38.5-37.7 38.5-3 0-7.3-.5-12.3-1.1v26.1c0 1.7-.1 4.5-1.8 4.5h-18.2c-1.7 0-4-2.8-4-4.5V79.4c0-2.4.9-3.5 5-4.4 8.6-2.1 20.1-3.9 31.7-3.9 24.3 0 37.3 14.2 37.3 38.6zm-24 0c0-10.7-2.8-18.4-13.5-18.4-5 0-9.5.3-12.5.8v47c4 .5 8.9.9 12.5.9 10.7 0 13.5-8 13.5-18.5v-11.8zm191-37.3H379c-21.7 0-34.5 9.2-34.5 30v53c0 1.7 2.4 4 4.1 4h18.5c1.7 0 2.4-2.3 2.4-4v-53c0-6.6 1.7-10 9.5-10h7.5c7.8 0 8 3.4 8 10v53c0 1.7 2.3 4 3.9 4H417c1.7 0 1.5-2.3 1.5-4v-53c0-20.7-10.3-30-32-30z"></path>
</svg>
